<svg width="200" height="200" xmlns="http://www.w3.org/2000/svg">
 <defs>
  <style>.cls-1{fill:#231f20;}</style>
 </defs>
 <title>Wondicon - UI (Free)</title>
 <g>
  <title>background</title>
  <rect fill="none" id="canvas_background" height="402" width="582" y="-1" x="-1"/>
 </g>
 <g>
  <title>Layer 1</title>
  <path id="svg_1" d="m100,175.69a5,5 0 0 1 -3.37,-1.31l-48.57,-44.38l-18.75,0a5,5 0 0 1 -5,-5l0,-50a5,5 0 0 1 5,-5l18.75,0l48.57,-44.38a5,5 0 0 1 8.37,3.69l0,141.38a5,5 0 0 1 -5,5zm-65.69,-55.69l15.69,0a5,5 0 0 1 3.37,1.31l41.63,38l0,-118.66l-41.63,38a5,5 0 0 1 -3.37,1.35l-15.69,0l0,40z" class="cls-1"/>
 </g>
</svg>